<?xml version="1.0" encoding="UTF-8"?>
<svg id="Layer_2" data-name="Layer 2" xmlns="http://www.w3.org/2000/svg" viewBox="0 0 146.86 75.51">
  <defs>
    <style>
      .cls-1 {
        font-family: Poppins-ExtraLight, Poppins;
        font-size: 14.95px;
        font-weight: 200;
      }

      .cls-2, .cls-3 {
        stroke: #000;
        stroke-linecap: round;
        stroke-miterlimit: 10;
      }

      .cls-3 {
        fill: none;
        stroke-width: 3px;
      }
    </style>
  </defs>
  <g id="Layer_1-2" data-name="Layer 1-2">
    <path class="cls-2" d="m18.5,16.64c-4.12,0-7.91,1.4-10.94,3.73,2.55-1.72,5.63-2.73,8.94-2.73,8.84,0,16,7.16,16,16s-7.16,16-16,16S.79,42.74.53,34.14c0,.17-.03.33-.03.5,0,9.94,8.06,18,18,18s18-8.06,18-18-8.06-18-18-18Z"/>
    <path class="cls-2" d="m76.75,20.14c-3.72,0-7.14,1.22-9.88,3.26,2.3-1.51,5.08-2.39,8.07-2.39,7.98,0,14.44,6.27,14.44,14s-6.47,14-14.44,14-14.18-6.03-14.42-13.56c0,.15-.02.29-.02.44,0,8.7,7.28,15.75,16.25,15.75s16.25-7.05,16.25-15.75-7.28-15.75-16.25-15.75Z"/>
    <path class="cls-3" d="m16.15,32.42c9.56-4.28,20.17-5.76,30.65-5.71s20.87,1.59,31.23,3.12c-9.49-.02-18.01,2.35-26.52,6.81-2.44,1.28-6,2-6.83,5.66"/>
    <path class="cls-3" d="m78.5,30.64c-6.42-7.32-14.91-15.83-21.86-23.41"/>
    <path class="cls-3" d="m41.68,4.34c4.65,1.14,9.36,2.28,14.15,2.18s9.73-1.58,13.06-5.02"/>
    <circle class="cls-3" cx="49" cy="43.14" r="4.5"/>
  </g>
  <text class="cls-1" transform="translate(.41 67.24) scale(1.13 1)"><tspan x="0" y="0">RURAL RIDES</tspan></text>
</svg>