<?xml version="1.0" encoding="UTF-8"?>
<svg id="Layer_2" data-name="Layer 2" xmlns="http://www.w3.org/2000/svg" viewBox="0 0 35.89 32.45">
  <defs>
    <style>
      .cls-1, .cls-2 {
        stroke: #000;
        stroke-miterlimit: 10;
      }

      .cls-2 {
        fill: #fff;
      }
    </style>
  </defs>
  <g id="Layer_1-2" data-name="Layer 1">
    <g>
      <line class="cls-1" x1=".45" y1="28" x2="6.45" y2="16"/>
      <line class="cls-1" x1="8.45" y1="32" x2=".45" y2="28"/>
      <line class="cls-1" x1="10.45" y1="20" x2="6.45" y2="16"/>
      <line class="cls-1" x1="8.45" y1="32" x2="10.45" y2="20"/>
      <line class="cls-1" x1="17.45" y1="15" x2="10.45" y2="20"/>
      <line class="cls-1" x1="17.45" y1="27" x2="17.45" y2="15"/>
      <line class="cls-1" x1="8.45" y1="32" x2="17.45" y2="27"/>
      <line class="cls-1" x1="27.45" y1="32" x2="17.45" y2="27"/>
      <line class="cls-1" x1="25.45" y1="20" x2="17.45" y2="15"/>
      <line class="cls-1" x1="27.45" y1="32" x2="25.45" y2="20"/>
      <line class="cls-1" x1="35.45" y1="28" x2="27.45" y2="32"/>
      <line class="cls-1" x1="32.45" y1="22" x2="35.45" y2="28"/>
      <path class="cls-1" d="m28.95.5c-3.04,0-5.5,2.24-5.5,5s2.46,5,5.5,5,5.5-2.24,5.5-5S31.98.5,28.95.5Zm0,9c-2.43,0-4.4-1.79-4.4-4s1.97-4,4.4-4,4.4,1.79,4.4,4-1.97,4-4.4,4Z"/>
      <polygon class="cls-1" points="28.95 21.5 26.7 15 24.45 8.5 28.95 8.5 33.45 8.5 31.2 15 28.95 21.5"/>
      <circle class="cls-2" cx="28.95" cy="5.5" r="4"/>
    </g>
  </g>
</svg>