<?xml version="1.0" encoding="UTF-8"?>
<svg id="Layer_2" data-name="Layer 2" xmlns="http://www.w3.org/2000/svg" viewBox="0 0 72.57 30.5">
  <defs>
    <style>
      .cls-1 {
        fill: none;
      }

      .cls-1, .cls-2, .cls-3 {
        stroke: #000;
        stroke-miterlimit: 10;
      }

      .cls-3 {
        fill: #fff;
      }
    </style>
  </defs>
  <g id="Layer_1-2" data-name="Layer 1">
    <g>
      <g>
        <path class="cls-2" d="m4.54.5C2.58.5,1,1.94,1,3.71s1.58,3.21,3.54,3.21,3.54-1.44,3.54-3.21S6.49.5,4.54.5Zm0,5.79c-1.56,0-2.83-1.15-2.83-2.57s1.27-2.57,2.83-2.57,2.83,1.15,2.83,2.57-1.27,2.57-2.83,2.57Z"/>
        <polygon class="cls-2" points="4.54 14 3.09 9.82 1.64 5.64 4.54 5.64 7.43 5.64 5.98 9.82 4.54 14"/>
        <circle class="cls-3" cx="4.54" cy="3.71" r="2.57"/>
      </g>
      <g>
        <path class="cls-2" d="m68.54,7.5c-1.95,0-3.54,1.44-3.54,3.21s1.58,3.21,3.54,3.21,3.54-1.44,3.54-3.21-1.58-3.21-3.54-3.21Zm0,5.79c-1.56,0-2.83-1.15-2.83-2.57s1.27-2.57,2.83-2.57,2.83,1.15,2.83,2.57-1.27,2.57-2.83,2.57Z"/>
        <polygon class="cls-2" points="68.54 21 67.09 16.82 65.64 12.64 68.54 12.64 71.43 12.64 69.98 16.82 68.54 21"/>
        <circle class="cls-3" cx="68.54" cy="10.71" r="2.57"/>
      </g>
      <circle class="cls-3" cx="4" cy="19.5" r="3.5"/>
      <circle class="cls-3" cx="68" cy="26.5" r="3.5"/>
      <path class="cls-1" d="m7.25,18.28c9.49-1.24,19.09-2.48,28.61-1.46,5.39.58,10.67,1.87,15.94,3.16,4.65,1.14,8.07,3.88,12.71,5.02"/>
    </g>
  </g>
</svg>